<svg width="60" height="60" viewBox="0 0 60 60" fill="none" xmlns="http://www.w3.org/2000/svg">
  <rect width="60" height="60" rx="12" fill="#000000"/>
  <path d="M42.5 29.5C44.4 29.6 45.6 30 46.7 30.9C47 31.1 47.4 31.5 47.6 31.7C49 33.3 49 35.2 49 38.8C49 42.4 49 44.2 47.6 45.8C47.4 46 47 46.4 46.7 46.6C44.9 48 42.4 48 38.8 48C35.2 48 33.3 48 31.7 46.6C31.5 46.4 31.1 46 30.9 45.8C30 44.9 29.6 44.1 29.5 42.5C28.3 45.8 25 48 21.2 48C16.1 48 12 43.8 12 38.8C12 35 14.3 31.7 17.6 30.3C16 30.2 15 29.8 14.1 29.1C13.9 28.9 13.5 28.5 13.3 28.3C12 26.8 12 24.9 12 21.2C12 17.5 12 15.6 13.3 14.1C13.5 13.9 13.9 13.5 14.1 13.3C15.6 12 17.5 12 21.2 12C24.9 12 26.8 12 28.3 13.3C28.5 13.5 28.9 13.9 29.1 14.1C30 15 30.2 16 30.3 17.6C31.7 14.3 35 12 38.8 12C43.8 12 48 16.1 48 21.2C48 25 45.8 28.3 42.5 29.5ZM30.3 24.9C30.2 26.4 29.8 27.4 29.1 28.3C28.9 28.5 28.5 28.9 28.3 29.1C27.4 29.8 26.4 30.2 24.9 30.3C27 31.2 28.8 33 29.7 35.1C29.8 33.6 30.2 32.6 30.9 31.7C31.1 31.5 31.5 31.1 31.7 30.9C32.6 30.2 33.6 29.8 35.1 29.7C33 28.8 31.2 27 30.3 24.9Z" fill="#FFFFFF"/>
</svg>
